<svg width="800" height="600" xmlns="http://www.w3.org/2000/svg">

 <g>
  <title>Layer 1</title>
  <path stroke="null" clip-rule="evenodd" fill-rule="evenodd" d="m378.59602,264.44134l0,2.05314c0,0.53162 -0.48866,0.95783 -1.0865,0.95783l-49.43818,0c-0.60303,0 -1.0865,-0.43079 -1.0865,-0.95783l0,-2.05314l0,-10.8523l0,-11.59473c-1.21646,0.41246 -2.35494,0.42163 -3.30108,0.13749c-0.73819,-0.21998 -1.36202,-0.61411 -1.81949,-1.12281c-0.45747,-0.5087 -0.74859,-1.12739 -0.83697,-1.81024c-0.13516,-1.05865 0.22354,-2.25478 1.24765,-3.37759l0,0c0.05199,-0.05499 0.10917,-0.10999 0.17675,-0.15582l29.65771,-20.41222c0.38469,-0.31164 0.97733,-0.34372 1.40361,-0.05041l29.73049,20.37556l0,0c0.04679,0.03208 0.08838,0.06416 0.12996,0.10541c1.37761,1.30613 1.72072,2.75432 1.38801,3.97795c-0.16635,0.60494 -0.49386,1.15031 -0.94614,1.59485c-0.45227,0.44912 -1.02931,0.79742 -1.68433,1.00365c-1.03971,0.32997 -2.27696,0.3208 -3.52981,-0.20165l0,11.53057l0,10.8523l-0.0052,0zm-54.70431,-27.33698c-0.57704,0.66452 -0.77978,1.32904 -0.7122,1.88815c0.04159,0.3208 0.17155,0.60494 0.37949,0.83409c0.20274,0.22456 0.47827,0.39413 0.81097,0.49495c0.56664,0.16957 1.29964,0.12374 2.1366,-0.22456l25.88356,-17.36001c0.40029,-0.27039 0.94614,-0.25664 1.32563,0.00458l0,0l25.14537,17.23169c0.0104,0.00917 0.02079,0.01833 0.03639,0.02291c0.92014,0.58661 1.8039,0.67827 2.4901,0.46287c0.31711,-0.10082 0.59263,-0.26581 0.80577,-0.4812c0.21834,-0.2154 0.3743,-0.47204 0.45227,-0.76076c0.17155,-0.63244 -0.03639,-1.41153 -0.80577,-2.17229l-28.99229,-19.87144l-28.9559,19.93102l0,0zm12.49211,12.49298l13.88012,0c0.54065,0 0.98253,0.38038 0.98253,0.84784l0,9.57367c0,0.46746 -0.44188,0.84784 -0.98253,0.84784l-13.88012,0c-0.54065,0 -0.98253,-0.38038 -0.98253,-0.84784l0,-9.57367c0.0052,-0.46746 0.44188,-0.84784 0.98253,-0.84784l0,0zm19.82206,-0.84325l13.03276,0c0.58224,0 1.0553,0.43079 1.0553,0.96241l0,15.82016l6.12389,0l0,-24.61015c0,-0.06416 0.0052,-0.12374 0.02079,-0.18332l-23.39866,-16.03555l-23.91851,16.04472c0.02599,0.07791 0.03639,0.1604 0.03639,0.24748l0,24.53224l25.99273,0l0,-15.82016c0,-0.53162 0.47307,-0.95783 1.0553,-0.95783l0,0zm11.97745,1.92023l-10.91695,0l0,14.83942l10.91695,0l0,-14.83942l0,0zm-18.90192,5.40323l-5.15176,0l0,3.09345l5.15176,0l0,-3.09345l0,0zm-7.07522,0l-4.83985,0l0,3.09345l4.83985,0l0,-3.09345l0,0zm-4.83985,-1.69567l4.83985,0l0,-3.08887l-4.83985,0l0,3.08887l0,0zm6.76331,0l5.15176,0l0,-3.08887l-5.15176,0l0,3.08887l0,0zm8.51522,-22.73117c1.84548,0 3.34267,1.31987 3.34267,2.9468c0,1.62693 -1.49718,2.9468 -3.34267,2.9468c-1.84548,0 -3.34267,-1.31987 -3.34267,-2.9468c0,-1.63151 1.49718,-2.9468 3.34267,-2.9468l0,0z" class="st0"/>
 </g>
</svg>